<svg width="14" height="15" viewBox="0 0 14 15" fill="none" xmlns="http://www.w3.org/2000/svg">
    <path d="M9.12033 5.66407L6.24958 8.54251L4.8536 7.14653L4.78435 7.08868C4.58949 6.95368 4.32006 6.97297 4.1465 7.14653C3.95123 7.34179 3.95123 7.65838 4.1465 7.85364L5.8965 9.60364L5.96581 9.66154C6.16087 9.79663 6.43058 9.77713 6.60407 9.60316L9.82838 6.37023L9.88614 6.3009C10.0209 6.10585 10.0012 5.83645 9.82743 5.66312C9.63191 5.46812 9.31533 5.46854 9.12033 5.66407ZM7.77774 1.16676C7.37749 0.671627 6.62261 0.671628 6.22236 1.16676L5.30926 2.29634L3.90659 1.9192C3.29176 1.75389 2.68104 2.1976 2.64827 2.83343L2.5735 4.28398L1.21704 4.80333C0.622463 5.03099 0.389191 5.74893 0.736407 6.28258L1.52853 7.50006L0.736407 8.71753C0.389191 9.25119 0.622464 9.96913 1.21705 10.1968L2.5735 10.7161L2.64827 12.1667C2.68104 12.8025 3.29176 13.2462 3.90659 13.0809L5.30926 12.7038L6.22236 13.8334C6.62261 14.3285 7.37749 14.3285 7.77774 13.8334L8.69084 12.7038L10.0935 13.0809C10.7083 13.2462 11.3191 12.8025 11.3518 12.1667L11.4266 10.7161L12.7831 10.1968C13.3776 9.96913 13.6109 9.25119 13.2637 8.71753L12.4716 7.50006L13.2637 6.28258C13.6109 5.74892 13.3776 5.03099 12.7831 4.80333L11.4266 4.28398L11.3518 2.83342C11.3191 2.1976 10.7083 1.75389 10.0935 1.9192L8.69084 2.29634L7.77774 1.16676ZM2.93106 5.21787C3.30049 5.07643 3.55181 4.73051 3.57217 4.33546L3.64694 2.8849L5.04961 3.26204C5.43162 3.36475 5.83827 3.23262 6.08695 2.92499L7.00005 1.79541L7.91315 2.92499C8.16183 3.23262 8.56848 3.36475 8.95049 3.26204L10.3532 2.8849L10.4279 4.33546C10.4483 4.73051 10.6996 5.07643 11.069 5.21787L12.4255 5.73722L11.6334 6.95469C11.4176 7.28627 11.4176 7.71384 11.6334 8.04542L12.4255 9.26289L11.069 9.78224C10.6996 9.92369 10.4483 10.2696 10.4279 10.6647L10.3532 12.1152L8.95049 11.7381C8.56848 11.6354 8.16183 11.7675 7.91315 12.0751L7.00005 13.2047L6.08695 12.0751C5.83827 11.7675 5.43162 11.6354 5.04961 11.7381L3.64694 12.1152L3.57217 10.6647C3.55181 10.2696 3.30049 9.92369 2.93106 9.78224L1.57461 9.26289L2.36673 8.04542C2.58247 7.71385 2.58247 7.28627 2.36673 6.9547L1.57461 5.73722L2.93106 5.21787ZM8.69084 2.29634L8.302 2.61066Z" fill="#02AD5B"/>
</svg>